<?xml version="1.0" standalone="no"?>
<!DOCTYPE svg PUBLIC "-//W3C//DTD SVG 20010904//EN"
 "http://www.w3.org/TR/2001/REC-SVG-20010904/DTD/svg10.dtd">
<svg version="1.0" xmlns="http://www.w3.org/2000/svg"
 width="640.000000pt" height="640.000000pt" viewBox="0 0 640.000000 640.000000"
 preserveAspectRatio="xMidYMid meet">
<metadata>
Created by potrace 1.11, written by Peter Selinger 2001-2013
</metadata>
<g transform="translate(0.000000,640.000000) scale(0.100000,-0.100000)"
fill="#000000" stroke="none">
<path d="M0 4891 c0 -831 4 -1512 8 -1515 5 -3 5 -29 1 -58 -4 -29 -8 -788 -8
-1686 l-1 -1632 3200 0 3200 0 0 1103 0 1104 -40 -39 c-33 -31 -48 -38 -80
-38 -57 0 -84 14 -109 56 -17 29 -21 46 -16 73 18 96 76 169 141 178 34 4 44
1 71 -26 l33 -31 0 2010 0 2010 -240 0 -240 0 -1 -52 c-1 -158 -11 -284 -28
-348 -16 -66 -17 -77 -4 -119 12 -38 14 -124 9 -526 -6 -473 -10 -656 -22
-1030 -5 -167 -9 -196 -28 -235 -41 -87 -84 -99 -326 -94 -473 11 -618 10
-700 -6 -30 -6 -73 -12 -95 -13 -27 -2 -41 -7 -43 -18 -3 -17 -8 -17 383 -34
66 -3 131 -10 145 -15 56 -20 91 -21 147 -5 53 16 77 16 164 0 13 -2 64 -6
112 -9 80 -4 94 -7 135 -36 77 -52 87 -84 87 -274 0 -204 -21 -392 -47 -418
-10 -10 -18 -22 -18 -26 0 -5 -17 -18 -37 -29 -32 -18 -45 -20 -88 -12 -71 13
-72 13 -94 33 -17 15 -25 17 -52 7 -49 -17 -105 -13 -173 11 -34 12 -66 25
-71 29 -24 18 -92 21 -123 5 -26 -14 -31 -14 -36 -1 -3 8 -12 15 -21 15 -8 0
-15 5 -15 10 0 6 -9 10 -20 10 -11 0 -20 -5 -20 -11 0 -5 -4 -7 -10 -4 -5 3
-10 1 -10 -5 0 -14 -88 -95 -134 -125 -46 -30 -193 -25 -239 7 -44 31 -50 37
-77 86 -14 25 -29 41 -37 38 -7 -3 -15 -2 -17 3 -3 4 -29 6 -59 3 -79 -6 -97
7 -97 71 0 29 4 67 10 86 13 48 39 261 42 351 3 69 5 75 26 78 26 4 29 20 6
29 -13 5 -15 16 -9 67 9 86 22 114 79 168 37 36 47 50 39 60 -8 9 -7 33 3 83
10 50 14 152 14 358 0 256 -3 293 -19 340 -11 28 -22 81 -25 116 -3 35 -12 77
-20 92 -15 29 -11 73 5 63 5 -3 9 1 9 10 0 16 -49 68 -88 94 -13 8 -35 32 -48
51 -13 20 -47 63 -74 96 -28 33 -53 67 -57 75 -4 8 -28 41 -55 73 -26 32 -48
62 -48 67 0 12 -122 92 -170 113 -29 13 -31 15 -12 16 33 1 18 19 -23 27 -19
3 -32 10 -29 15 3 5 -13 9 -35 9 -31 0 -41 4 -41 16 0 9 -15 -4 -33 -28 -40
-52 -71 -57 -75 -13 -2 17 -10 44 -17 61 -22 47 -104 134 -126 134 -11 0 -38
9 -60 21 -23 11 -48 18 -56 15 -8 -3 -39 1 -69 10 -30 9 -71 15 -92 13 -54 -3
-62 -1 -62 16 0 19 -31 19 -76 0 -20 -8 -41 -12 -47 -8 -6 4 -3 9 9 14 45 18
-86 5 -146 -14 -64 -20 -147 -68 -163 -94 -12 -20 -38 7 -26 28 12 24 3 27
-37 15 -40 -13 -169 -130 -159 -146 3 -5 1 -10 -6 -10 -17 0 -38 -31 -39 -57
0 -12 -5 -25 -10 -28 -6 -4 -16 -21 -24 -39 -7 -18 -32 -47 -54 -64 -22 -18
-43 -45 -47 -60 -4 -17 -21 -36 -46 -52 -22 -14 -52 -41 -66 -60 -14 -19 -31
-39 -38 -45 -24 -21 -75 -99 -75 -115 0 -9 -13 -42 -30 -73 -16 -30 -34 -77
-41 -104 -6 -26 -33 -93 -60 -148 -57 -119 -66 -168 -81 -434 -9 -166 -8 -210
6 -310 9 -64 16 -149 16 -188 l0 -73 -50 0 c-51 0 -77 10 -118 45 -29 25 -63
97 -68 145 -2 19 -4 220 -5 445 0 226 -3 403 -6 395 -2 -8 -7 -22 -10 -30 -9
-23 -9 -120 -1 -120 5 0 3 -9 -4 -20 -10 -15 -10 -24 -1 -39 9 -14 9 -21 0
-30 -9 -9 -9 -16 0 -29 7 -12 8 -24 2 -35 -6 -11 -6 -24 1 -37 6 -11 8 -26 4
-32 -4 -7 -9 -37 -10 -68 -2 -30 -3 -57 -4 -60 -1 -3 -1 -41 0 -85 0 -44 -4
-124 -9 -177 -9 -94 -11 -98 -48 -136 -63 -65 -87 -68 -143 -19 -43 37 -61 75
-48 100 11 22 23 135 19 192 -1 22 -5 193 -9 380 -4 187 -11 346 -15 352 -12
20 -28 281 -27 463 0 93 -5 185 -11 211 -10 39 -9 51 6 80 10 19 23 44 29 56
14 29 69 53 126 56 42 2 45 0 69 -42 19 -34 24 -57 22 -100 -5 -148 0 -234 23
-371 8 -47 17 -155 20 -241 3 -86 10 -167 15 -180 9 -21 10 -22 11 -4 3 39 9
194 20 485 13 339 12 336 34 378 21 41 20 61 -5 124 -19 49 -20 65 -14 201 l7
147 -382 -2 c-411 -3 -386 0 -406 -53 -7 -18 -8 -17 -12 8 -2 19 -8 27 -17 23
-7 -2 -19 2 -25 10 -10 11 -43 14 -151 14 -126 0 -138 -2 -144 -19 -6 -21 -36
-23 -48 -3 -7 10 -12 10 -23 1 -11 -9 -18 -8 -32 5 -16 14 -53 16 -295 16
l-277 0 0 -1509z m1595 1466 c55 -15 79 -77 64 -168 -13 -76 -27 -109 -46
-109 -8 0 -12 4 -9 9 8 12 -60 71 -82 71 -20 0 -67 32 -89 60 -32 40 -2 98 70
134 28 14 48 15 92 3z m-605 -13 c0 -8 -5 -12 -10 -9 -6 4 -8 11 -5 16 9 14
15 11 15 -7z m-327 -657 c16 -6 25 -22 47 -82 4 -11 17 -42 29 -69 31 -68 38
-212 21 -433 -13 -174 -13 -176 -42 -201 -31 -28 -110 -62 -144 -62 -32 0
-110 65 -124 102 -22 59 -28 170 -18 318 9 119 17 165 45 255 42 133 72 203
92 215 10 5 25 0 45 -15 17 -12 39 -25 49 -28z m364 16 c8 -11 16 -50 20 -87
5 -61 9 -69 32 -77 108 -39 127 -73 136 -239 3 -63 7 -315 9 -560 3 -415 2
-449 -16 -508 -18 -58 -23 -65 -61 -83 -24 -10 -65 -19 -94 -19 -45 0 -55 4
-87 35 -33 32 -36 40 -37 92 -1 143 -10 311 -19 342 -5 19 -7 38 -4 43 3 4 -1
8 -10 8 -8 0 -17 14 -22 32 -3 18 -14 43 -22 56 -13 21 -15 76 -14 405 1 210
5 396 7 412 3 17 6 37 6 45 1 19 29 102 41 116 5 7 32 10 65 9 44 -2 60 -7 70
-22z m2518 -144 c22 -7 43 -12 48 -11 6 2 11 -13 8 -30 0 -4 9 -4 22 1 15 6
26 4 35 -5 7 -8 23 -14 35 -14 12 0 34 -11 48 -24 14 -13 40 -27 57 -31 18 -3
29 -11 26 -18 -2 -7 16 -19 46 -30 27 -10 50 -23 50 -28 0 -6 7 -9 15 -5 9 3
15 0 15 -9 0 -8 5 -15 11 -15 16 0 38 -26 42 -48 1 -10 10 -31 20 -45 9 -15
17 -37 17 -51 0 -14 5 -28 10 -31 6 -4 8 -11 4 -16 -3 -6 3 -13 15 -16 12 -3
21 -6 21 -8 0 -1 11 -33 25 -71 14 -38 23 -75 20 -81 -2 -7 3 -13 11 -13 8 0
12 -4 9 -10 -3 -5 -1 -10 4 -10 6 0 11 11 11 25 0 46 17 26 24 -27 9 -71 8
-68 6 -113 -1 -22 8 -74 20 -115 12 -41 20 -95 19 -120 -3 -52 8 -107 27 -135
17 -24 18 -52 2 -58 -8 -4 -7 -6 3 -6 9 -1 20 -8 23 -17 9 -23 7 -36 -4 -29
-13 8 -13 -8 0 -21 5 -5 12 -36 15 -69 3 -33 13 -96 22 -140 15 -77 33 -225
33 -274 0 -13 -12 -35 -27 -49 -15 -13 -28 -32 -30 -41 -1 -9 -11 -67 -23
-130 -11 -62 -20 -125 -20 -140 0 -73 -13 -127 -33 -142 -19 -16 -20 -19 -5
-40 25 -40 29 -71 11 -91 -9 -10 -16 -34 -17 -53 -1 -20 -5 -39 -11 -43 -18
-13 -32 -46 -31 -74 1 -17 -4 -28 -11 -28 -7 0 -13 -5 -13 -11 0 -6 -7 -9 -15
-6 -8 4 -17 2 -20 -4 -8 -11 16 -69 28 -69 5 0 5 -5 2 -10 -4 -7 -13 -6 -26 1
-12 6 -22 9 -23 7 -1 -2 -9 -20 -19 -41 -19 -41 -37 -41 -37 0 0 21 -2 24 -15
13 -8 -7 -15 -21 -15 -31 0 -10 -9 -23 -20 -29 -11 -6 -20 -17 -20 -26 0 -8
-6 -14 -12 -13 -24 3 -38 -1 -38 -11 0 -5 7 -10 16 -10 14 0 14 -2 3 -16 -8
-10 -15 -12 -17 -5 -5 14 -35 14 -49 0 -7 -7 -9 -25 -6 -43 6 -30 5 -30 -13
-14 -19 16 -20 16 -32 -12 -8 -17 -19 -27 -26 -24 -8 3 -16 -4 -19 -15 -4 -16
-13 -21 -36 -21 -26 0 -32 -5 -39 -32 -6 -24 -14 -32 -28 -30 -12 1 -47 -25
-97 -71 -75 -72 -80 -74 -150 -87 -39 -7 -76 -16 -82 -19 -16 -12 -117 -12
-152 0 -25 8 -33 16 -33 34 0 13 -5 27 -10 30 -13 8 -68 -37 -63 -52 6 -16
-46 -26 -63 -12 -8 6 -12 15 -9 19 7 12 -21 32 -41 28 -13 -2 -21 9 -33 45 -8
26 -20 47 -28 47 -7 0 -13 8 -14 18 0 14 -2 14 -9 -3 -6 -14 -9 -15 -10 -5 -1
10 -5 7 -12 -8 -18 -37 -48 -23 -95 43 -35 50 -54 100 -58 150 -1 6 -6 20 -13
32 -7 12 -12 29 -12 37 0 9 -4 16 -10 16 -5 0 -10 9 -10 20 0 11 7 20 15 20 8
0 15 8 15 19 0 36 37 31 75 -10 19 -21 35 -46 35 -54 0 -8 8 -16 18 -16 9 -1
24 -2 32 -3 8 -1 35 5 59 13 39 12 45 12 53 -3 5 -9 14 -13 20 -10 6 4 14 0
19 -7 7 -11 10 -9 15 9 8 28 24 28 47 1 15 -17 21 -18 34 -8 8 7 24 14 36 16
11 2 26 8 32 13 7 5 15 7 18 4 3 -4 13 1 22 10 9 9 23 16 31 16 20 0 18 27 -3
39 -15 9 -15 12 -4 20 20 13 -2 23 -58 26 -63 4 -61 3 -62 23 0 13 -3 11 -10
-6 -6 -15 -13 -21 -21 -15 -7 4 -24 9 -38 11 -28 4 -41 19 -33 39 3 8 -2 13
-12 13 -11 0 -15 -5 -12 -14 3 -8 3 -17 0 -20 -9 -8 -43 24 -43 40 0 7 -6 15
-12 17 -9 4 -9 8 -3 14 17 14 16 33 -2 34 -10 1 0 5 22 9 22 5 51 6 65 2 25
-5 25 -5 -4 20 -25 21 -33 23 -57 14 -62 -23 -110 27 -79 84 13 24 56 27 87 5
12 -9 24 -11 27 -6 10 16 83 23 106 11 16 -9 25 -9 35 0 8 7 43 14 77 16 35 2
98 8 142 14 56 7 83 7 92 -1 7 -6 23 -8 35 -4 13 4 24 2 29 -5 6 -10 13 -9 30
3 20 14 23 14 41 -4 10 -10 19 -23 19 -27 0 -5 -27 -21 -60 -37 -41 -20 -60
-34 -60 -47 0 -24 42 -17 85 14 16 12 49 36 72 52 23 17 42 36 43 43 0 6 20
21 45 33 44 21 75 21 75 0 0 -5 7 -10 15 -10 18 0 19 5 -5 -58 -21 -55 -26
-87 -12 -78 5 3 30 48 56 100 44 88 47 99 41 144 -6 44 -14 57 -68 110 -34 33
-86 81 -114 106 -29 25 -76 68 -105 96 -55 54 -88 67 -67 28 7 -13 18 -27 25
-31 8 -4 14 -13 14 -20 0 -7 20 -34 45 -62 24 -27 45 -54 45 -58 0 -5 36 -44
80 -87 70 -68 98 -111 73 -110 -14 1 -53 38 -53 50 0 7 -8 6 -22 -4 -12 -9
-31 -16 -42 -16 -10 0 -24 -7 -30 -16 -14 -18 -83 -33 -179 -39 -37 -2 -76 -7
-87 -10 -42 -13 -71 -15 -200 -15 -80 0 -164 6 -205 15 -38 8 -100 15 -137 15
-38 0 -68 4 -68 8 0 17 63 30 115 25 36 -4 60 -2 69 6 8 7 20 10 26 6 22 -14
93 -8 102 9 7 13 17 16 37 11 23 -5 31 -1 45 19 20 31 21 50 2 43 -23 -9 -28
6 -7 18 20 10 20 11 1 23 -12 7 -20 8 -20 2 0 -5 -4 -10 -9 -10 -5 0 -7 9 -4
20 3 11 9 20 14 20 5 0 9 7 9 15 0 8 -9 15 -20 15 -17 0 -19 3 -10 19 21 40
201 55 186 15 -3 -8 -4 -14 -1 -14 13 0 77 45 85 60 8 14 5 17 -18 18 -15 0
-66 3 -114 7 l-87 8 -34 -34 c-19 -19 -36 -41 -39 -49 -8 -22 -95 25 -114 61
-7 15 -22 30 -31 33 -10 4 -38 24 -63 46 -25 22 -51 40 -57 40 -7 0 -13 3 -13
6 0 7 69 115 79 124 35 30 47 101 56 323 3 53 8 105 13 115 10 19 9 68 -1 79
-4 3 -16 -4 -27 -17 l-21 -24 -5 21 c-3 12 -11 20 -17 17 -7 -2 -18 0 -26 5
-12 8 -13 12 -1 25 16 21 13 24 -36 34 -37 8 -39 10 -36 44 2 25 -2 37 -13 42
-8 3 -15 0 -16 -7 -1 -7 -5 -1 -9 13 -5 17 -8 19 -9 8 -1 -22 -34 -24 -51 -3
-6 8 -8 20 -4 26 5 9 2 10 -10 6 -9 -4 -24 -3 -34 3 -9 5 -29 11 -44 15 -16 3
-28 12 -28 20 0 8 -6 16 -12 16 -7 1 -20 2 -28 3 -8 0 -17 -2 -20 -5 -3 -3
-20 -9 -39 -13 -19 -3 -32 -3 -28 0 3 4 -2 19 -13 34 -16 22 -17 33 -9 69 7
33 6 55 -8 98 -16 51 -16 57 -1 83 13 23 13 28 2 23 -10 -4 -13 2 -12 21 1 14
5 26 8 26 4 0 13 12 21 28 8 15 22 36 31 46 19 21 15 36 -9 36 -11 0 -13 5 -8
18 5 9 13 31 19 48 6 21 25 41 53 58 37 22 43 30 41 56 -1 16 -6 30 -11 30 -5
0 -2 11 7 25 20 30 20 35 1 35 -24 0 -17 14 18 35 17 11 50 31 72 44 41 25
145 45 142 27 -4 -23 33 -14 82 19 41 27 63 35 98 35 24 0 56 6 71 14 15 7 37
12 50 10 12 -2 22 0 22 4 0 15 158 45 210 40 28 -3 53 -1 56 4 7 11 73 4 129
-13z m-2877 -1091 c22 -11 23 -16 17 -72 -4 -33 -13 -69 -19 -79 -15 -24 -63
-53 -103 -62 -29 -6 -34 -4 -43 20 -22 58 -7 176 26 199 19 15 88 11 122 -6z
m1492 -143 c-6 -8 -9 -19 -5 -25 3 -5 2 -10 -4 -10 -18 0 -21 18 -5 34 19 20
31 21 14 1z m-20 -55 c0 -5 -7 -10 -15 -10 -8 0 -15 5 -15 10 0 6 7 10 15 10
8 0 15 -4 15 -10z m-3 -56 c1 -16 6 -41 12 -56 9 -24 8 -28 -7 -28 -15 0 -15
-2 -2 -10 13 -9 13 -11 0 -20 -12 -8 -12 -12 -2 -18 10 -7 10 -20 1 -63 -6
-30 -16 -60 -21 -66 -6 -7 -12 -50 -15 -95 -3 -46 -8 -96 -13 -113 -7 -26 -8
-23 -9 23 -1 29 3 94 9 145 9 88 19 250 20 310 0 38 24 30 27 -9z m625 -32
c33 -14 58 -31 58 -39 0 -11 -14 -7 -55 16 -30 17 -69 31 -87 31 -50 0 -83 11
-66 21 19 13 83 1 150 -29z m-138 -53 c-3 -5 -10 -7 -15 -3 -5 3 -7 10 -3 15
3 5 10 7 15 3 5 -3 7 -10 3 -15z m113 -1 c30 -21 44 -47 26 -49 -5 0 -26 -3
-48 -5 l-40 -5 0 41 c0 47 13 51 62 18z m63 -78 c0 -5 -10 -9 -22 -8 -13 1
-43 -2 -68 -7 -54 -9 -50 1 6 14 54 12 84 13 84 1z m-776 -122 c8 -53 18 -146
26 -258 5 -58 13 -139 19 -180 5 -41 12 -106 16 -145 4 -38 10 -78 14 -90 7
-20 -30 -130 -40 -120 -6 5 -44 13 -69 14 -8 1 -29 15 -47 31 -18 17 -35 30
-39 30 -15 0 -74 64 -74 80 0 8 -8 27 -17 40 -16 22 -18 51 -18 230 0 113 3
221 8 241 16 77 111 158 184 159 29 0 33 -4 37 -32z m721 -39 c-4 -6 3 -21 14
-33 26 -27 21 -46 -33 -121 -108 -150 -147 -236 -125 -276 6 -12 6 -25 0 -36
-6 -12 -4 -24 6 -40 18 -28 14 -34 -24 -37 -15 -2 -38 -8 -51 -15 -45 -24 -44
-5 2 44 43 47 63 82 32 56 -7 -6 -20 -9 -28 -6 -21 8 -67 -42 -95 -105 -20
-43 -24 -67 -21 -108 6 -74 28 -93 28 -24 0 56 8 64 28 31 10 -16 11 -24 1
-35 -10 -12 -6 -23 18 -57 17 -23 37 -55 46 -72 9 -16 30 -46 47 -65 17 -19
38 -47 48 -62 17 -29 32 -36 32 -16 0 8 6 6 17 -5 15 -15 15 -18 0 -34 -22
-25 -66 -28 -83 -6 -12 17 -13 16 -14 -6 0 -20 -3 -22 -27 -16 -16 3 -29 11
-31 16 -2 5 -9 9 -16 9 -7 0 -21 8 -32 18 -10 10 -26 21 -35 24 -8 3 -21 26
-28 49 -7 24 -17 49 -21 54 -4 6 -11 26 -15 45 -10 52 -28 100 -37 100 -4 0
-8 5 -8 11 0 6 -7 17 -16 26 -11 12 -14 29 -11 67 5 45 -4 81 -22 96 -11 9
-41 68 -41 80 0 7 -8 18 -17 25 -11 8 -16 25 -15 54 1 22 -3 41 -8 41 -18 0
-11 19 28 77 25 38 33 58 25 60 -7 3 -13 20 -13 39 0 19 -3 33 -7 32 -15 -5
-18 39 -5 58 10 15 57 30 48 15 -12 -18 6 -12 30 10 20 19 27 20 98 10 42 -6
85 -16 95 -23 15 -9 29 -9 63 2 23 7 48 18 53 24 6 6 17 13 25 15 8 2 29 7 45
11 44 12 57 11 50 -1z m50 -193 c12 -12 12 -16 0 -26 -18 -15 -45 -6 -45 14 0
12 10 21 28 25 2 1 10 -5 17 -13z m-688 -68 c-3 -7 -5 -2 -5 12 0 14 2 19 5
13 2 -7 2 -19 0 -25z m-1496 -369 c15 -17 41 -59 59 -94 30 -59 32 -68 29
-156 -5 -145 0 -247 16 -323 16 -77 20 -85 36 -69 6 6 18 9 25 6 8 -3 14 0 14
6 0 23 16 10 34 -28 10 -22 16 -43 13 -49 -4 -5 -2 -26 4 -47 12 -41 39 -198
40 -230 1 -11 6 -49 11 -85 6 -38 7 -151 3 -274 l-7 -208 -43 -42 c-60 -57
-99 -85 -116 -82 -25 3 -68 37 -74 57 -4 11 -8 36 -10 55 -2 28 -15 47 -66 95
-35 32 -67 59 -71 59 -16 0 -48 61 -48 92 0 19 -14 90 -31 158 l-31 125 8 317
c6 298 6 321 -12 365 -29 72 -26 256 4 304 61 99 153 120 213 48z m3639 -69
c0 -5 -2 -10 -4 -10 -3 0 -8 5 -11 10 -3 6 -1 10 4 10 6 0 11 -4 11 -10z
m-1667 -31 c-5 -5 -22 -5 -38 -1 -28 8 -28 9 -10 19 22 13 63 -3 48 -18z m30
-23 c4 -10 1 -13 -8 -9 -8 3 -12 9 -9 14 7 12 11 11 17 -5z m147 -46 c12 -8
11 -10 -7 -10 -12 0 -25 5 -28 10 -8 13 15 13 35 0z m2870 -439 c0 -4 15 -22
33 -41 41 -42 57 -71 57 -102 0 -13 4 -28 9 -34 12 -11 16 -44 8 -64 -3 -8 -8
-31 -12 -52 -5 -36 -54 -91 -103 -117 -17 -9 -92 -147 -92 -169 0 -4 -17 -27
-38 -51 -36 -41 -40 -44 -75 -37 -58 11 -76 48 -91 187 -7 61 12 128 50 182
36 49 36 50 28 116 -5 36 -8 79 -6 94 3 36 30 77 56 87 25 10 176 11 176 1z
m-1450 -116 c-10 -27 -7 -30 34 -37 14 -2 19 -13 21 -48 5 -83 17 -150 27
-150 6 0 6 -6 -1 -14 -9 -11 -9 -15 1 -18 14 -5 -79 -77 -99 -78 -7 0 -59 -22
-115 -48 -187 -88 -213 -99 -343 -136 -44 -13 -114 -33 -157 -46 -70 -22 -79
-22 -107 -8 l-31 14 20 22 c11 12 32 25 45 28 20 5 23 10 15 24 -10 19 -4 30
17 30 7 0 13 -7 13 -15 0 -9 6 -12 15 -9 8 4 15 11 15 16 0 12 51 54 61 51 4
-1 18 8 32 21 14 13 28 22 30 19 3 -2 14 8 25 22 12 15 26 24 32 20 11 -7 50
30 50 47 0 5 4 7 9 3 5 -3 17 5 25 17 9 12 16 18 17 13 0 -6 4 -1 9 11 4 12
26 30 47 40 21 10 57 40 81 65 24 27 55 49 71 52 16 3 53 30 84 61 31 31 58
56 61 56 3 0 1 -11 -4 -25z m720 -38 c36 -18 69 -142 50 -188 -13 -30 -75 -99
-90 -99 -4 0 -21 35 -39 78 -49 120 -55 127 -93 124 -100 -7 -168 -9 -168 -3
0 16 34 52 61 66 16 9 29 14 29 11 0 -2 17 2 38 10 47 17 179 18 212 1z
m-2310 -109 c29 -48 70 -183 77 -254 6 -61 5 -62 -25 -78 -33 -17 -70 -21 -87
-8 -37 25 -52 212 -26 320 15 61 32 67 61 20z m-269 -408 c15 -9 19 -20 17
-55 0 -25 -5 -45 -11 -45 -5 0 -6 -7 -3 -16 3 -9 2 -12 -5 -9 -5 4 -16 2 -24
-5 -12 -10 -25 -7 -64 18 -9 5 -9 87 0 104 11 20 59 24 90 8z m1119 -40 c0 -5
-7 -10 -16 -10 -8 0 -12 5 -9 10 3 6 10 10 16 10 5 0 9 -4 9 -10z m-2681 -530
c24 -17 57 -30 73 -30 15 0 28 -4 28 -9 0 -5 9 -11 20 -14 11 -3 23 -16 28
-29 12 -35 -1 -208 -17 -218 -8 -4 -11 -12 -7 -18 6 -10 -46 -22 -97 -22 -19
0 -39 -11 -60 -34 -45 -47 -62 -69 -70 -90 -4 -9 -11 -14 -17 -11 -5 3 -10 -1
-10 -9 0 -16 -28 -35 -60 -41 -30 -6 -57 35 -64 96 -6 53 -4 58 40 125 l46 69
-17 51 c-32 95 10 189 91 204 21 4 41 8 44 9 3 0 25 -13 49 -29z m2861 -32
c28 -31 27 -92 -2 -112 -55 -39 -128 -5 -128 60 0 63 87 98 130 52z m-746
-499 c15 -17 26 -43 26 -59 0 -16 -11 -42 -26 -59 -21 -26 -33 -31 -68 -31
-57 0 -89 33 -90 92 -1 37 3 44 33 65 49 33 93 30 125 -8z"/>
<path d="M2996 5451 c-19 -7 -19 -8 2 -13 15 -4 22 -2 22 8 0 8 -1 14 -2 13
-2 0 -12 -4 -22 -8z"/>
<path d="M2935 5440 c-3 -5 -2 -10 4 -10 5 0 13 5 16 10 3 6 2 10 -4 10 -5 0
-13 -4 -16 -10z"/>
<path d="M2894 5405 c-1 -19 3 -35 7 -35 5 0 9 16 9 35 0 46 -15 46 -16 0z"/>
<path d="M3878 5363 c7 -3 16 -2 19 1 4 3 -2 6 -13 5 -11 0 -14 -3 -6 -6z"/>
<path d="M4014 5124 c3 -9 6 -20 6 -25 0 -5 5 -9 10 -9 6 0 10 11 10 25 0 16
-6 25 -16 25 -11 0 -14 -5 -10 -16z"/>
<path d="M4038 5043 c7 -3 16 -2 19 1 4 3 -2 6 -13 5 -11 0 -14 -3 -6 -6z"/>
<path d="M4042 5019 c9 -5 15 -15 12 -23 -3 -7 4 -24 15 -37 18 -22 20 -22 26
-6 4 9 2 31 -5 47 -9 23 -19 30 -39 30 -22 -1 -23 -2 -9 -11z"/>
<path d="M3769 4658 c-1 -7 -1 -16 0 -20 0 -3 -22 -9 -49 -13 -36 -5 -58 -2
-84 10 -41 20 -132 18 -158 -3 -9 -7 -31 -15 -50 -16 -64 -6 -108 -18 -102
-28 4 -6 1 -8 -7 -6 -8 3 -34 -10 -58 -29 -24 -18 -47 -33 -50 -33 -4 0 -13
-16 -20 -36 -12 -32 -11 -38 3 -46 9 -5 16 -17 16 -26 1 -9 11 -29 23 -44 l23
-28 51 20 c32 12 54 16 58 10 3 -6 2 -10 -4 -10 -6 0 -8 -7 -5 -15 4 -8 1 -15
-5 -15 -6 0 -11 -6 -11 -13 0 -8 -8 -21 -19 -31 -20 -19 -18 -64 5 -82 8 -7
13 -25 11 -45 -2 -26 -7 -35 -24 -37 -21 -3 -21 -3 -2 -42 24 -50 65 -71 140
-73 46 -1 59 -5 59 -17 0 -13 1 -13 10 0 6 10 10 11 10 3 0 -9 7 -10 24 -3 14
5 26 6 28 2 2 -4 43 -6 92 -4 49 2 84 7 77 11 -8 5 11 13 48 22 55 12 58 14
40 27 -14 10 -40 12 -100 7 -77 -5 -80 -5 -70 14 6 11 21 22 33 24 l23 4 -22
2 c-23 1 -31 25 -13 36 6 3 10 1 10 -4 0 -6 14 -11 30 -11 17 0 30 -4 30 -10
0 -5 7 -7 15 -4 10 4 15 0 15 -11 0 -10 -5 -13 -12 -9 -7 4 -8 3 -4 -4 11 -18
26 -14 26 6 0 15 8 19 40 20 22 1 50 -4 61 -11 15 -9 21 -9 27 0 9 15 62 37
82 34 8 -1 -2 8 -22 21 -41 24 -50 39 -18 31 32 -8 24 1 -42 53 -80 63 -129
88 -201 103 -32 7 -56 16 -52 19 12 13 79 0 129 -24 l51 -25 -28 25 c-26 24
-143 66 -184 66 -11 0 -44 7 -73 16 -50 15 -53 17 -35 30 10 8 36 14 58 14 21
0 60 9 87 21 45 19 51 20 65 5 9 -9 33 -16 53 -17 59 -1 94 -7 105 -18 8 -8 2
-11 -18 -11 -27 0 -28 -1 -9 -15 10 -8 29 -15 42 -15 13 0 43 -18 68 -42 51
-48 101 -61 89 -24 -4 12 -10 41 -14 66 -10 67 -52 114 -138 156 -40 19 -88
50 -106 69 -37 38 -46 42 -48 23z m-21 -81 c13 -4 12 -5 -4 -6 -22 -1 -39 21
-26 34 4 4 8 0 10 -8 2 -9 11 -18 20 -20z m22 23 c12 -8 11 -10 -7 -10 -13 0
-23 5 -23 10 0 13 11 13 30 0z m-540 -90 c0 -5 -5 -10 -11 -10 -5 0 -7 5 -4
10 3 6 8 10 11 10 2 0 4 -4 4 -10z m588 -7 c5 -18 -20 -16 -44 2 -18 15 -18
15 10 13 16 -2 31 -9 34 -15z m-79 -182 c10 -6 -1 -8 -30 -4 -24 3 -46 7 -48
9 -10 9 65 3 78 -5z m-13 -46 c18 -14 18 -14 -11 -15 -41 0 -76 10 -69 21 8
14 58 10 80 -6z m-158 -118 l12 -28 -37 3 c-31 2 -39 7 -41 26 -2 16 3 25 20
31 26 10 29 8 46 -32z m222 18 c0 -2 -7 -5 -15 -9 -9 -3 -15 0 -15 9 0 9 6 12
15 9 8 -4 15 -7 15 -9z m-425 -94 c3 -11 12 -22 20 -25 8 -3 15 -10 15 -15 0
-6 -6 -8 -13 -5 -17 6 -51 64 -38 64 5 0 12 -9 16 -19z"/>
<path d="M3875 4070 c11 -5 27 -9 35 -9 13 -1 13 0 0 9 -8 5 -24 9 -35 9 l-20
0 20 -9z"/>
<path d="M3280 3491 c0 -6 4 -13 10 -16 6 -3 7 1 4 9 -7 18 -14 21 -14 7z"/>
<path d="M3121 3334 c0 -11 3 -14 6 -6 3 7 2 16 -1 19 -3 4 -6 -2 -5 -13z"/>
<path d="M4070 3184 c0 -8 5 -12 10 -9 6 4 8 11 5 16 -9 14 -15 11 -15 -7z"/>
<path d="M3260 3098 c0 -14 28 -20 46 -10 14 8 11 10 -15 14 -17 2 -31 1 -31
-4z"/>
<path d="M3350 3095 c0 -9 5 -15 11 -13 6 2 11 8 11 13 0 5 -5 11 -11 13 -6 2
-11 -4 -11 -13z"/>
<path d="M3450 3090 c0 -5 -8 -10 -17 -11 -15 0 -15 -2 2 -9 29 -12 31 -12 32
10 1 11 -2 20 -8 20 -5 0 -9 -4 -9 -10z"/>
<path d="M3285 3040 c-4 -6 -10 -8 -15 -5 -5 3 -11 1 -14 -4 -12 -19 12 -20
34 -1 13 11 18 20 12 20 -6 0 -14 -5 -17 -10z"/>
<path d="M3121 2991 c-8 -5 -9 -11 -3 -15 5 -3 15 1 22 9 14 16 3 20 -19 6z"/>
<path d="M2931 2621 c-26 -35 -26 -40 -3 -37 10 2 18 13 20 30 2 16 8 24 14
20 7 -4 8 -2 4 4 -10 17 -12 16 -35 -17z"/>
<path d="M2933 2563 c-18 -7 -16 -23 3 -23 8 0 13 4 10 9 -4 5 0 12 6 14 7 3
9 5 3 5 -5 0 -16 -2 -22 -5z"/>
<path d="M2720 3860 c0 -5 5 -10 11 -10 5 0 7 5 4 10 -3 6 -8 10 -11 10 -2 0
-4 -4 -4 -10z"/>
<path d="M4517 5984 c-8 -8 1 -24 14 -24 5 0 9 7 9 15 0 15 -12 20 -23 9z"/>
<path d="M4600 4050 c-26 -26 -25 -33 8 -52 23 -13 29 -14 40 -2 13 14 15 34
6 58 -8 22 -30 20 -54 -4z"/>
</g>
</svg>
